# xmcd CD database file
#
# Track frame offsets:
#	150
#	12969
#	25887
#	39059
#	53163
#	66550
#	78676
#	91879
#	104872
#	117591
#	128210
#	142082
#	153682
#	166911
#	177480
#	189352
#	202034
#
# Disc length: 2895 seconds
#
# Revision: 0
# Processed by: cddbd v1.5.2PL0 Copyright (c) Steve Scherf et al.
# Submitted via: CDex 1.70beta2
#
DISCID=f80b4d11
DTITLE=Ray Charles - The Genius At His Best CD04
DYEAR=1900
DGENRE=Blues
TTITLE0=I Wonder Who
TTITLE1=Feelin' Sad
TTITLE2=I've Got A Woman
TTITLE3=Come Back Baby
TTITLE4=Don't You Know
TTITLE5=Nobody Cares
TTITLE6=Ray's Blues
TTITLE7=Greenbacks
TTITLE8=I Got A Break Baby
TTITLE9=Blackjack
TTITLE10=A Fool For You
TTITLE11=This Little Girl Of Mine
TTITLE12=Hard Times (No One Knows Better Than I)
TTITLE13=Blues Hangover
TTITLE14=What Would I Do Without You
TTITLE15=Mary Ann
TTITLE16=Drown In My Own Tears
EXTD=
EXTT0=
EXTT1=
EXTT2=
EXTT3=
EXTT4=
EXTT5=
EXTT6=
EXTT7=
EXTT8=
EXTT9=
EXTT10=
EXTT11=
EXTT12=
EXTT13=
EXTT14=
EXTT15=
EXTT16=
PLAYORDER=
